ffmpeg started on 2016-12-03 at 03:12:11
Report written to "Output/x264/results/ffmpeg/old_town_cross_2160p50placebo2500k.log"
Command line:
Tools/ffmpeg/ffmpeg -benchmark -y -i Input/y4m/old_town_cross_2160p50.y4m -c:v libx264 -preset placebo -b:v 2500k -an Output/x264/encoded/old_town_cross_2160p50placebo2500k.mkv
ffmpeg version N-82227-gdb23fde Copyright (c) 2000-2016 the FFmpeg developers
  built with gcc 5.4.0 (Ubuntu 5.4.0-6ubuntu1~16.04.2) 20160609
  configuration: --prefix=/home/jaroslav/ffmpeg_build --pkg-config-flags=--static --extra-cflags=-I/home/jaroslav/ffmpeg_build/include --extra-ldflags=-L/home/jaroslav/ffmpeg_build/lib --bindir=/home/jaroslav/bin --enable-gpl --enable-libass --enable-libfdk-aac --enable-libfreetype --enable-libmp3lame --enable-libopus --enable-libtheora --enable-libvorbis --enable-libvpx --enable-libx264 --enable-libx265 --enable-nvenc --enable-libmfx --enable-libxvid --enable-libgsm --enable-libopencore-amrnb --enable-version3 --enable-nonfree
  libavutil      55. 35.100 / 55. 35.100
  libavcodec     57. 66.101 / 57. 66.101
  libavformat    57. 57.100 / 57. 57.100
  libavdevice    57.  2.100 / 57.  2.100
  libavfilter     6. 66.100 /  6. 66.100
  libswscale      4.  3.100 /  4.  3.100
  libswresample   2.  4.100 /  2.  4.100
  libpostproc    54.  2.100 / 54.  2.100
Input #0, yuv4mpegpipe, from 'Input/y4m/old_town_cross_2160p50.y4m':
  Duration: 00:00:10.00, start: 0.000000, bitrate: 4976642 kb/s
    Stream #0:0: Video: rawvideo (I420 / 0x30323449), yuv420p(progressive), 3840x2160, SAR 1:1 DAR 16:9, 50 fps, 50 tbr, 50 tbn, 50 tbc
[libx264 @ 0x2b1c120] using SAR=1/1
[libx264 @ 0x2b1c120] DPB size (16 frames, 518400 mbs) > level limit (5 frames, 184320 mbs)
[libx264 @ 0x2b1c120] using cpu capabilities: MMX2 SSE2Fast SSSE3 SSE4.2 AVX FMA3 AVX2 LZCNT BMI2
[libx264 @ 0x2b1c120] profile High, level 5.2
[libx264 @ 0x2b1c120] 264 - core 148 - H.264/MPEG-4 AVC codec - Copyleft 2003-2016 - http://www.videolan.org/x264.html - options: cabac=1 ref=16 deblock=1:0:0 analyse=0x3:0x133 me=tesa subme=11 psy=1 psy_rd=1.00:0.00 mixed_ref=1 me_range=24 chroma_me=1 trellis=2 8x8dct=1 cqm=0 deadzone=21,11 fast_pskip=0 chroma_qp_offset=-2 threads=6 lookahead_threads=1 sliced_threads=0 nr=0 decimate=1 interlaced=0 bluray_compat=0 constrained_intra=0 bframes=16 b_pyramid=2 b_adapt=2 b_bias=0 direct=3 weightb=1 open_gop=0 weightp=2 keyint=250 keyint_min=25 scenecut=40 intra_refresh=0 rc_lookahead=60 rc=abr mbtree=1 bitrate=2500 ratetol=1.0 qcomp=0.60 qpmin=0 qpmax=69 qpstep=4 ip_ratio=1.40 aq=1:1.00
Output #0, matroska, to 'Output/x264/encoded/old_town_cross_2160p50placebo2500k.mkv':
  Metadata:
    encoder         : Lavf57.57.100
    Stream #0:0: Video: h264 (libx264) (H264 / 0x34363248), yuv420p, 3840x2160 [SAR 1:1 DAR 16:9], q=-1--1, 2500 kb/s, 50 fps, 1k tbn, 50 tbc
    Metadata:
      encoder         : Lavc57.66.101 libx264
    Side data:
      cpb: bitrate max/min/avg: 0/0/2500000 buffer size: 0 vbv_delay: -1
Stream mapping:
  Stream #0:0 -> #0:0 (rawvideo (native) -> h264 (libx264))
Press [q] to stop, [?] for help
frame=   58 fps=0.0 q=0.0 size=       0kB time=00:00:00.00 bitrate=N/A speed=   0x    frame=   84 fps=3.3 q=0.0 size=       0kB time=00:00:00.00 bitrate=N/A speed=   0x    frame=   89 fps=3.4 q=46.0 size=       1kB time=-00:00:00.01 bitrate=N/A speed=N/A    frame=   90 fps=3.3 q=46.0 size=       1kB time=00:00:00.00 bitrate=5888.0kbits/s speed=3.65e-05x    frame=   91 fps=3.1 q=46.0 size=       1kB time=00:00:00.02 bitrate= 280.4kbits/s speed=0.000722x    frame=   92 fps=3.1 q=46.0 size=       1kB time=00:00:00.04 bitrate= 143.6kbits/s speed=0.00138x    frame=   95 fps=3.1 q=46.0 size=       1kB time=00:00:00.10 bitrate=  58.3kbits/s speed=0.00334x    frame=   96 fps=3.1 q=46.0 size=       1kB time=00:00:00.12 bitrate=  48.7kbits/s speed=0.00392x    frame=   97 fps=3.0 q=46.0 size=       1kB time=00:00:00.14 bitrate=  41.8kbits/s speed=0.00433x    frame=   98 fps=2.9 q=53.0 size=       1kB time=00:00:00.16 bitrate=  36.6kbits/s speed=0.00481x    frame=   99 fps=2.5 q=49.0 size=       1kB time=00:00:00.18 bitrate=  32.5kbits/s speed=0.00459x    frame=  104 fps=2.5 q=50.0 size=       1kB time=00:00:00.28 bitrate=  21.0kbits/s speed=0.00681x    frame=  105 fps=2.5 q=51.0 size=       1kB time=00:00:00.30 bitrate=  19.6kbits/s speed=0.00706x    frame=  106 fps=2.4 q=51.0 size=       1kB time=00:00:00.32 bitrate=  18.3kbits/s speed=0.00733x    frame=  109 fps=2.2 q=51.0 size=       1kB time=00:00:00.38 bitrate=  15.5kbits/s speed=0.00777x    frame=  114 fps=2.2 q=52.0 size=       1kB time=00:00:00.48 bitrate=  12.2kbits/s speed=0.00911x    frame=  115 fps=2.2 q=51.0 size=       1kB time=00:00:00.50 bitrate=  11.8kbits/s speed=0.0094x    frame=  116 fps=2.2 q=51.0 size=       1kB time=00:00:00.52 bitrate=  11.3kbits/s speed=0.00968x    frame=  120 fps=2.1 q=50.0 size=       1kB time=00:00:00.60 bitrate=   9.8kbits/s speed=0.0105x    frame=  121 fps=2.1 q=50.0 size=       1kB time=00:00:00.62 bitrate=   9.5kbits/s speed=0.0107x    frame=  123 fps=2.0 q=49.0 size=       1kB time=00:00:00.66 bitrate=   8.9kbits/s speed=0.0107x    frame=  128 fps=1.9 q=49.0 size=       1kB time=00:00:00.76 bitrate=   7.7kbits/s speed=0.0114x    frame=  129 fps=1.9 q=49.0 size=       1kB time=00:00:00.78 bitrate=   7.5kbits/s speed=0.0115x    frame=  130 fps=1.9 q=49.0 size=       1kB time=00:00:00.80 bitrate=   7.4kbits/s speed=0.0117x    frame=  134 fps=1.9 q=49.0 size=       1kB time=00:00:00.88 bitrate=   6.7kbits/s speed=0.0122x    frame=  135 fps=1.9 q=49.0 size=       1kB time=00:00:00.90 bitrate=   6.5kbits/s speed=0.0124x    frame=  136 fps=1.9 q=49.0 size=       1kB time=00:00:00.92 bitrate=   6.4kbits/s speed=0.0125x    frame=  138 fps=1.9 q=49.0 size=       1kB time=00:00:00.96 bitrate=   6.1kbits/s speed=0.013x    frame=  140 fps=1.8 q=49.0 size=       1kB time=00:00:01.00 bitrate=   5.9kbits/s speed=0.0126x    frame=  141 fps=1.8 q=49.0 size=       1kB time=00:00:01.02 bitrate=   5.8kbits/s speed=0.0127x    frame=  142 fps=1.7 q=49.0 size=       1kB time=00:00:01.04 bitrate=   5.7kbits/s speed=0.0128x    frame=  145 fps=1.8 q=48.0 size=       1kB time=00:00:01.10 bitrate=   5.3kbits/s speed=0.0133x    frame=  146 fps=1.7 q=48.0 size=       1kB time=00:00:01.12 bitrate=   5.3kbits/s speed=0.0132x    frame=  147 fps=1.7 q=48.0 size=       1kB time=00:00:01.14 bitrate=   5.2kbits/s speed=0.0132x    frame=  149 fps=1.7 q=48.0 size=       1kB time=00:00:01.18 bitrate=   5.0kbits/s speed=0.0134x    frame=  150 fps=1.6 q=48.0 size=       1kB time=00:00:01.20 bitrate=   4.9kbits/s speed=0.013x    frame=  151 fps=1.6 q=48.0 size=       1kB time=00:00:01.22 bitrate=   4.8kbits/s speed=0.0131x    frame=  152 fps=1.6 q=48.0 size=       1kB time=00:00:01.24 bitrate=   4.7kbits/s speed=0.0131x    frame=  156 fps=1.6 q=48.0 size=       1kB time=00:00:01.32 bitrate=   4.5kbits/s speed=0.0132x    frame=  157 fps=1.6 q=48.0 size=       1kB time=00:00:01.34 bitrate=   4.4kbits/s speed=0.0133x    frame=  158 fps=1.6 q=48.0 size=       1kB time=00:00:01.36 bitrate=   4.3kbits/s speed=0.0134x    frame=  159 fps=1.5 q=48.0 size=       1kB time=00:00:01.38 bitrate=   4.3kbits/s speed=0.0135x    frame=  160 fps=1.5 q=48.0 size=       1kB time=00:00:01.40 bitrate=   4.2kbits/s speed=0.0131x    frame=  161 fps=1.5 q=48.0 size=       1kB time=00:00:01.42 bitrate=   4.1kbits/s speed=0.0131x    frame=  162 fps=1.5 q=48.0 size=       1kB time=00:00:01.44 bitrate=   4.1kbits/s speed=0.0132x    frame=  163 fps=1.5 q=48.0 size=       1kB time=00:00:01.46 bitrate=   4.0kbits/s speed=0.0133x    frame=  166 fps=1.4 q=48.0 size=       1kB time=00:00:01.52 bitrate=   3.9kbits/s speed=0.0132x    frame=  168 fps=1.4 q=48.0 size=       1kB time=00:00:01.56 bitrate=   3.8kbits/s speed=0.0134x    frame=  170 fps=1.4 q=48.0 size=       1kB time=00:00:01.60 bitrate=   3.7kbits/s speed=0.013x    frame=  171 fps=1.4 q=48.0 size=       1kB time=00:00:01.62 bitrate=   3.6kbits/s speed=0.013x    frame=  172 fps=1.4 q=48.0 size=       1kB time=00:00:01.64 bitrate=   3.6kbits/s speed=0.0131x    frame=  176 fps=1.3 q=48.0 size=       1kB time=00:00:01.72 bitrate=   3.4kbits/s speed=0.0132x    frame=  177 fps=1.3 q=48.0 size=       1kB time=00:00:01.74 bitrate=   3.4kbits/s speed=0.0131x    frame=  179 fps=1.3 q=48.0 size=       1kB time=00:00:01.78 bitrate=   3.3kbits/s speed=0.0133x    frame=  181 fps=1.3 q=48.0 size=       1kB time=00:00:01.82 bitrate=   3.2kbits/s speed=0.013x    frame=  182 fps=1.3 q=47.0 size=       1kB time=00:00:01.84 bitrate=   3.2kbits/s speed=0.013x    frame=  183 fps=1.3 q=47.0 size=       1kB time=00:00:01.86 bitrate=   3.2kbits/s speed=0.0131x    frame=  187 fps=1.3 q=47.0 size=       1kB time=00:00:01.94 bitrate=   3.0kbits/s speed=0.0131x    frame=  189 fps=1.3 q=47.0 size=       1kB time=00:00:01.98 bitrate=   3.0kbits/s speed=0.0131x    frame=  192 fps=1.2 q=47.0 size=       1kB time=00:00:02.04 bitrate=   2.9kbits/s speed=0.013x    frame=  193 fps=1.2 q=47.0 size=       1kB time=00:00:02.06 bitrate=   2.9kbits/s speed=0.013x    frame=  194 fps=1.2 q=47.0 size=       1kB time=00:00:02.08 bitrate=   2.8kbits/s speed=0.0131x    frame=  195 fps=1.2 q=47.0 size=       1kB time=00:00:02.10 bitrate=   2.8kbits/s speed=0.0132x    frame=  198 fps=1.2 q=47.0 size=       1kB time=00:00:02.16 bitrate=   2.7kbits/s speed=0.0132x    frame=  199 fps=1.2 q=47.0 size=       1kB time=00:00:02.18 bitrate=   2.7kbits/s speed=0.0132x    frame=  200 fps=1.2 q=47.0 size=       1kB time=00:00:02.20 bitrate=   2.7kbits/s speed=0.0132x    frame=  201 fps=1.2 q=47.0 size=       1kB time=00:00:02.22 bitrate=   2.7kbits/s speed=0.0133x    frame=  202 fps=1.2 q=47.0 size=       1kB time=00:00:02.24 bitrate=   2.6kbits/s speed=0.0133x    frame=  203 fps=1.2 q=47.0 size=       1kB time=00:00:02.26 bitrate=   2.6kbits/s speed=0.013x    frame=  204 fps=1.2 q=47.0 size=       1kB time=00:00:02.28 bitrate=   2.6kbits/s speed=0.0131x    frame=  205 fps=1.2 q=47.0 size=       1kB time=00:00:02.30 bitrate=   2.6kbits/s speed=0.0131x    frame=  209 fps=1.2 q=47.0 size=       1kB time=00:00:02.38 bitrate=   2.5kbits/s speed=0.0133x    frame=  210 fps=1.1 q=47.0 size=       1kB time=00:00:02.40 bitrate=   2.5kbits/s speed=0.013x    frame=  211 fps=1.1 q=47.0 size=       1kB time=00:00:02.42 bitrate=   2.4kbits/s speed=0.013x    frame=  212 fps=1.1 q=47.0 size=       1kB time=00:00:02.44 bitrate=   2.4kbits/s speed=0.013x    frame=  216 fps=1.1 q=47.0 size=       1kB time=00:00:02.52 bitrate=   2.3kbits/s speed=0.0131x    frame=  217 fps=1.1 q=47.0 size=       1kB time=00:00:02.54 bitrate=   2.3kbits/s speed=0.0131x    frame=  218 fps=1.1 q=47.0 size=       1kB time=00:00:02.56 bitrate=   2.3kbits/s speed=0.0131x    frame=  219 fps=1.1 q=47.0 size=       1kB time=00:00:02.58 bitrate=   2.3kbits/s speed=0.0132x    frame=  221 fps=1.1 q=47.0 size=       1kB time=00:00:02.62 bitrate=   2.2kbits/s speed=0.013x    frame=  222 fps=1.1 q=47.0 size=       1kB time=00:00:02.64 bitrate=   2.2kbits/s speed=0.013x    frame=  223 fps=1.1 q=47.0 size=       1kB time=00:00:02.66 bitrate=   2.2kbits/s speed=0.013x    frame=  224 fps=1.1 q=47.0 size=       1kB time=00:00:02.68 bitrate=   2.2kbits/s speed=0.0131x    frame=  227 fps=1.1 q=47.0 size=       1kB time=00:00:02.74 bitrate=   2.1kbits/s speed=0.0131x    frame=  228 fps=1.1 q=47.0 size=       1kB time=00:00:02.76 bitrate=   2.1kbits/s speed=0.0131x    frame=  229 fps=1.1 q=47.0 size=       1kB time=00:00:02.78 bitrate=   2.1kbits/s speed=0.0131x    frame=  230 fps=1.1 q=47.0 size=       1kB time=00:00:02.80 bitrate=   2.1kbits/s speed=0.0131x    frame=  232 fps=1.1 q=47.0 size=       1kB time=00:00:02.84 bitrate=   2.1kbits/s speed=0.013x    frame=  233 fps=1.1 q=47.0 size=       1kB time=00:00:02.86 bitrate=   2.1kbits/s speed=0.013x    frame=  234 fps=1.1 q=47.0 size=       1kB time=00:00:02.88 bitrate=   2.0kbits/s speed=0.013x    frame=  236 fps=1.1 q=47.0 size=       1kB time=00:00:02.92 bitrate=   2.0kbits/s speed=0.0131x    frame=  238 fps=1.1 q=47.0 size=       1kB time=00:00:02.96 bitrate=   2.0kbits/s speed=0.0131x    frame=  239 fps=1.0 q=47.0 size=       1kB time=00:00:02.98 bitrate=   2.0kbits/s speed=0.0131x    frame=  240 fps=1.0 q=47.0 size=       1kB time=00:00:03.00 bitrate=   2.0kbits/s speed=0.0129x    frame=  241 fps=1.0 q=47.0 size=       1kB time=00:00:03.02 bitrate=   1.9kbits/s speed=0.0129x    frame=  242 fps=1.0 q=47.0 size=       1kB time=00:00:03.04 bitrate=   1.9kbits/s speed=0.0129x    frame=  246 fps=1.0 q=46.0 size=       1kB time=00:00:03.12 bitrate=   1.9kbits/s speed=0.013x    frame=  247 fps=1.0 q=46.0 size=       1kB time=00:00:03.14 bitrate=   1.9kbits/s speed=0.013x    frame=  248 fps=1.0 q=46.0 size=       1kB time=00:00:03.16 bitrate=   1.9kbits/s speed=0.013x    frame=  249 fps=1.0 q=46.0 size=       1kB time=00:00:03.18 bitrate=   1.9kbits/s speed=0.013x    frame=  251 fps=1.0 q=46.0 size=       1kB time=00:00:03.22 bitrate=   1.8kbits/s speed=0.0129x    frame=  252 fps=1.0 q=46.0 size=       1kB time=00:00:03.24 bitrate=   1.8kbits/s speed=0.0129x    frame=  253 fps=1.0 q=46.0 size=       1kB time=00:00:03.26 bitrate=   1.8kbits/s speed=0.0129x    frame=  255 fps=1.0 q=46.0 size=       1kB time=00:00:03.30 bitrate=   1.8kbits/s speed=0.013x    frame=  257 fps=1.0 q=46.0 size=       1kB time=00:00:03.34 bitrate=   1.8kbits/s speed=0.013x    frame=  258 fps=1.0 q=46.0 size=       1kB time=00:00:03.36 bitrate=   1.8kbits/s speed=0.013x    frame=  259 fps=1.0 q=46.0 size=       1kB time=00:00:03.38 bitrate=   1.7kbits/s speed=0.0129x    frame=  260 fps=1.0 q=46.0 size=       1kB time=00:00:03.40 bitrate=   1.7kbits/s speed=0.0129x    frame=  261 fps=1.0 q=46.0 size=       1kB time=00:00:03.42 bitrate=   1.7kbits/s speed=0.0129x    frame=  265 fps=1.0 q=46.0 size=       1kB time=00:00:03.50 bitrate=   1.7kbits/s speed=0.0129x    frame=  266 fps=1.0 q=46.0 size=       1kB time=00:00:03.52 bitrate=   1.7kbits/s speed=0.0129x    frame=  267 fps=1.0 q=46.0 size=       1kB time=00:00:03.54 bitrate=   1.7kbits/s speed=0.0129x    frame=  270 fps=1.0 q=46.0 size=       1kB time=00:00:03.60 bitrate=   1.6kbits/s speed=0.0128x    frame=  271 fps=1.0 q=46.0 size=       1kB time=00:00:03.62 bitrate=   1.6kbits/s speed=0.0128x    frame=  272 fps=1.0 q=46.0 size=       1kB time=00:00:03.64 bitrate=   1.6kbits/s speed=0.0129x    frame=  276 fps=1.0 q=46.0 size=       1kB time=00:00:03.72 bitrate=   1.6kbits/s speed=0.0128x    frame=  277 fps=0.9 q=46.0 size=       1kB time=00:00:03.74 bitrate=   1.6kbits/s speed=0.0128x    frame=  278 fps=0.9 q=46.0 size=       1kB time=00:00:03.76 bitrate=   1.6kbits/s speed=0.0128x    frame=  280 fps=1.0 q=46.0 size=       1kB time=00:00:03.80 bitrate=   1.5kbits/s speed=0.0129x    frame=  282 fps=0.9 q=46.0 size=       1kB time=00:00:03.84 bitrate=   1.5kbits/s speed=0.0129x    frame=  283 fps=0.9 q=46.0 size=       1kB time=00:00:03.86 bitrate=   1.5kbits/s speed=0.0129x    frame=  284 fps=0.9 q=46.0 size=       1kB time=00:00:03.88 bitrate=   1.5kbits/s speed=0.0128x    frame=  285 fps=0.9 q=46.0 size=       1kB time=00:00:03.90 bitrate=   1.5kbits/s speed=0.0128x    frame=  286 fps=0.9 q=46.0 size=       1kB time=00:00:03.92 bitrate=   1.5kbits/s speed=0.0128x    frame=  290 fps=0.9 q=46.0 size=       1kB time=00:00:04.00 bitrate=   1.5kbits/s speed=0.0127x    frame=  291 fps=0.9 q=46.0 size=       1kB time=00:00:04.02 bitrate=   1.5kbits/s speed=0.0127x    frame=  293 fps=0.9 q=46.0 size=       1kB time=00:00:04.06 bitrate=   1.4kbits/s speed=0.0128x    frame=  296 fps=0.9 q=46.0 size=       1kB time=00:00:04.12 bitrate=   1.4kbits/s speed=0.0128x    frame=  297 fps=0.9 q=46.0 size=       1kB time=00:00:04.14 bitrate=   1.4kbits/s speed=0.0127x    frame=  298 fps=0.9 q=46.0 size=       1kB time=00:00:04.16 bitrate=   1.4kbits/s speed=0.0127x    frame=  299 fps=0.9 q=46.0 size=       1kB time=00:00:04.18 bitrate=   1.4kbits/s speed=0.0127x    frame=  303 fps=0.9 q=46.0 size=       1kB time=00:00:04.26 bitrate=   1.4kbits/s speed=0.0127x    frame=  304 fps=0.9 q=46.0 size=       1kB time=00:00:04.28 bitrate=   1.4kbits/s speed=0.0127x    frame=  305 fps=0.9 q=46.0 size=       1kB time=00:00:04.30 bitrate=   1.4kbits/s speed=0.0127x    frame=  307 fps=0.9 q=46.0 size=       1kB time=00:00:04.34 bitrate=   1.4kbits/s speed=0.0126x    frame=  308 fps=0.9 q=46.0 size=       1kB time=00:00:04.36 bitrate=   1.4kbits/s speed=0.0126x    frame=  309 fps=0.9 q=46.0 size=       1kB time=00:00:04.38 bitrate=   1.3kbits/s speed=0.0126x    frame=  313 fps=0.9 q=46.0 size=       1kB time=00:00:04.46 bitrate=   1.3kbits/s speed=0.0126x    frame=  314 fps=0.9 q=46.0 size=       1kB time=00:00:04.48 bitrate=   1.3kbits/s speed=0.0127x    frame=  315 fps=0.9 q=46.0 size=       1kB time=00:00:04.50 bitrate=   1.3kbits/s speed=0.0127x    frame=  319 fps=0.9 q=46.0 size=       1kB time=00:00:04.58 bitrate=   1.3kbits/s speed=0.0125x    frame=  320 fps=0.9 q=46.0 size=       1kB time=00:00:04.60 bitrate=   1.3kbits/s speed=0.0125x    frame=  321 fps=0.9 q=46.0 size=       1kB time=00:00:04.62 bitrate=   1.3kbits/s speed=0.0126x    frame=  325 fps=0.9 q=46.0 size=       1kB time=00:00:04.70 bitrate=   1.3kbits/s speed=0.0126x    frame=  326 fps=0.9 q=46.0 size=       1kB time=00:00:04.72 bitrate=   1.2kbits/s speed=0.0126x    frame=  327 fps=0.9 q=46.0 size=       1kB time=00:00:04.74 bitrate=   1.2kbits/s speed=0.0126x    frame=  329 fps=0.9 q=46.0 size=       1kB time=00:00:04.78 bitrate=   1.2kbits/s speed=0.0125x    frame=  330 fps=0.9 q=46.0 size=       1kB time=00:00:04.80 bitrate=   1.2kbits/s speed=0.0125x    frame=  331 fps=0.9 q=46.0 size=       1kB time=00:00:04.82 bitrate=   1.2kbits/s speed=0.0125x    frame=  335 fps=0.9 q=46.0 size=       1kB time=00:00:04.90 bitrate=   1.2kbits/s speed=0.0126x    frame=  336 fps=0.9 q=46.0 size=       1kB time=00:00:04.92 bitrate=   1.2kbits/s speed=0.0126x    frame=  342 fps=0.9 q=46.0 size=    1389kB time=00:00:05.04 bitrate=2256.9kbits/s speed=0.0128x    frame=  343 fps=0.9 q=46.0 size=    1389kB time=00:00:05.06 bitrate=2248.0kbits/s speed=0.0128x    frame=  348 fps=0.9 q=46.0 size=    1389kB time=00:00:05.16 bitrate=2204.4kbits/s speed=0.013x    frame=  349 fps=0.9 q=46.0 size=    1389kB time=00:00:05.18 bitrate=2195.9kbits/s speed=0.013x    frame=  351 fps=0.9 q=46.0 size=    1389kB time=00:00:05.22 bitrate=2179.1kbits/s speed=0.0131x    frame=  354 fps=0.9 q=46.0 size=    1389kB time=00:00:05.28 bitrate=2154.3kbits/s speed=0.0132x    frame=  355 fps=0.9 q=46.0 size=    1389kB time=00:00:05.30 bitrate=2146.2kbits/s speed=0.0132x    frame=  357 fps=0.9 q=46.0 size=    1389kB time=00:00:05.34 bitrate=2130.1kbits/s speed=0.0132x    frame=  359 fps=0.9 q=46.0 size=    1389kB time=00:00:05.38 bitrate=2114.3kbits/s speed=0.0132x    frame=  360 fps=0.9 q=46.0 size=    1389kB time=00:00:05.40 bitrate=2106.4kbits/s speed=0.0133x    frame=  361 fps=0.9 q=46.0 size=    1389kB time=00:00:05.42 bitrate=2098.7kbits/s speed=0.0133x    frame=  363 fps=0.9 q=46.0 size=    1389kB time=00:00:05.46 bitrate=2083.3kbits/s speed=0.0133x    frame=  365 fps=0.9 q=46.0 size=    1389kB time=00:00:05.50 bitrate=2068.2kbits/s speed=0.0133x    frame=  366 fps=0.9 q=46.0 size=    1389kB time=00:00:05.52 bitrate=2060.7kbits/s speed=0.0134x    frame=  369 fps=0.9 q=46.0 size=    1389kB time=00:00:05.58 bitrate=2038.5kbits/s speed=0.0135x    frame=  371 fps=0.9 q=46.0 size=    1389kB time=00:00:05.62 bitrate=2024.0kbits/s speed=0.0135x    frame=  372 fps=0.9 q=46.0 size=    1389kB time=00:00:05.64 bitrate=2016.8kbits/s speed=0.0135x    frame=  373 fps=0.9 q=46.0 size=    1389kB time=00:00:05.66 bitrate=2009.7kbits/s speed=0.0135x    frame=  374 fps=0.9 q=46.0 size=    1389kB time=00:00:05.68 bitrate=2002.6kbits/s speed=0.0134x    frame=  375 fps=0.9 q=46.0 size=    1389kB time=00:00:05.70 bitrate=1995.6kbits/s speed=0.0134x    frame=  376 fps=0.9 q=46.0 size=    1389kB time=00:00:05.72 bitrate=1988.6kbits/s speed=0.0135x    frame=  379 fps=0.9 q=46.0 size=    1389kB time=00:00:05.78 bitrate=1968.0kbits/s speed=0.0136x    frame=  380 fps=0.9 q=46.0 size=    1389kB time=00:00:05.80 bitrate=1961.2kbits/s speed=0.0135x    frame=  381 fps=0.9 q=46.0 size=    1389kB time=00:00:05.82 bitrate=1954.5kbits/s speed=0.0135x    frame=  383 fps=0.9 q=46.0 size=    1389kB time=00:00:05.86 bitrate=1941.1kbits/s speed=0.0136x    frame=  385 fps=0.9 q=46.0 size=    1389kB time=00:00:05.90 bitrate=1928.0kbits/s speed=0.0136x    frame=  386 fps=0.9 q=46.0 size=    1389kB time=00:00:05.92 bitrate=1921.4kbits/s speed=0.0136x    frame=  387 fps=0.9 q=46.0 size=    1389kB time=00:00:05.94 bitrate=1915.0kbits/s speed=0.0136x    frame=  389 fps=0.9 q=46.0 size=    1389kB time=00:00:05.98 bitrate=1902.2kbits/s speed=0.0135x    frame=  390 fps=0.9 q=46.0 size=    1389kB time=00:00:06.00 bitrate=1895.8kbits/s speed=0.0136x    frame=  391 fps=0.9 q=46.0 size=    1389kB time=00:00:06.02 bitrate=1889.5kbits/s speed=0.0136x    frame=  393 fps=0.9 q=46.0 size=    1389kB time=00:00:06.06 bitrate=1877.1kbits/s speed=0.0136x    frame=  395 fps=0.9 q=46.0 size=    1389kB time=00:00:06.10 bitrate=1864.8kbits/s speed=0.0136x    frame=  396 fps=0.9 q=46.0 size=    1389kB time=00:00:06.12 bitrate=1858.7kbits/s speed=0.0136x    frame=  398 fps=0.9 q=46.0 size=    1389kB time=00:00:06.16 bitrate=1846.6kbits/s speed=0.0136x    frame=  399 fps=0.9 q=46.0 size=    1389kB time=00:00:06.18 bitrate=1840.6kbits/s speed=0.0136x    frame=  400 fps=0.9 q=46.0 size=    1389kB time=00:00:06.20 bitrate=1834.7kbits/s speed=0.0136x    frame=  401 fps=0.9 q=46.0 size=    1389kB time=00:00:06.22 bitrate=1828.8kbits/s speed=0.0136x    frame=  402 fps=0.9 q=46.0 size=    1389kB time=00:00:06.24 bitrate=1822.9kbits/s speed=0.0136x    frame=  403 fps=0.9 q=46.0 size=    1389kB time=00:00:06.26 bitrate=1817.1kbits/s speed=0.0135x    frame=  404 fps=0.9 q=46.0 size=    1389kB time=00:00:06.28 bitrate=1811.3kbits/s speed=0.0135x    frame=  405 fps=0.9 q=46.0 size=    1389kB time=00:00:06.30 bitrate=1805.6kbits/s speed=0.0136x    frame=  408 fps=0.9 q=46.0 size=    1389kB time=00:00:06.36 bitrate=1788.5kbits/s speed=0.0137x    frame=  409 fps=0.9 q=46.0 size=    1389kB time=00:00:06.38 bitrate=1782.9kbits/s speed=0.0135x    frame=  410 fps=0.9 q=46.0 size=    1389kB time=00:00:06.40 bitrate=1777.4kbits/s speed=0.0135x    frame=  411 fps=0.9 q=46.0 size=    1389kB time=00:00:06.42 bitrate=1771.8kbits/s speed=0.0135x    frame=  414 fps=0.9 q=46.0 size=    1389kB time=00:00:06.48 bitrate=1755.4kbits/s speed=0.0136x    frame=  415 fps=0.9 q=46.0 size=    1389kB time=00:00:06.50 bitrate=1750.0kbits/s speed=0.0136x    frame=  416 fps=0.9 q=46.0 size=    1389kB time=00:00:06.52 bitrate=1744.7kbits/s speed=0.0135x    frame=  417 fps=0.9 q=46.0 size=    1389kB time=00:00:06.54 bitrate=1739.3kbits/s speed=0.0135x    frame=  418 fps=0.9 q=46.0 size=    1389kB time=00:00:06.56 bitrate=1734.0kbits/s speed=0.0135x    frame=  422 fps=0.9 q=46.0 size=    1389kB time=00:00:06.64 bitrate=1713.1kbits/s speed=0.0135x    frame=  423 fps=0.9 q=46.0 size=    1389kB time=00:00:06.66 bitrate=1708.0kbits/s speed=0.0135x    frame=  424 fps=0.9 q=46.0 size=    1389kB time=00:00:06.68 bitrate=1702.9kbits/s speed=0.0135x    frame=  426 fps=0.9 q=46.0 size=    1389kB time=00:00:06.72 bitrate=1692.7kbits/s speed=0.0135x    frame=  427 fps=0.8 q=46.0 size=    1389kB time=00:00:06.74 bitrate=1687.7kbits/s speed=0.0134x    frame=  428 fps=0.8 q=46.0 size=    1389kB time=00:00:06.76 bitrate=1682.7kbits/s speed=0.0134x    frame=  429 fps=0.8 q=46.0 size=    1389kB time=00:00:06.78 bitrate=1677.8kbits/s speed=0.0134x    frame=  432 fps=0.9 q=46.0 size=    1389kB time=00:00:06.84 bitrate=1663.0kbits/s speed=0.0135x    frame=  433 fps=0.8 q=46.0 size=    1389kB time=00:00:06.86 bitrate=1658.2kbits/s speed=0.0134x    frame=  434 fps=0.8 q=46.0 size=    1389kB time=00:00:06.88 bitrate=1653.4kbits/s speed=0.0134x    frame=  437 fps=0.8 q=46.0 size=    1389kB time=00:00:06.94 bitrate=1639.1kbits/s speed=0.0135x    frame=  438 fps=0.8 q=46.0 size=    1389kB time=00:00:06.96 bitrate=1634.4kbits/s speed=0.0133x    frame=  439 fps=0.8 q=46.0 size=    1389kB time=00:00:06.98 bitrate=1629.7kbits/s speed=0.0133x    frame=  440 fps=0.8 q=46.0 size=    1389kB time=00:00:07.00 bitrate=1625.0kbits/s speed=0.0133x    frame=  444 fps=0.8 q=46.0 size=    1389kB time=00:00:07.08 bitrate=1606.7kbits/s speed=0.0133x    frame=  446 fps=0.8 q=46.0 size=    1389kB time=00:00:07.12 bitrate=1597.7kbits/s speed=0.0133x    frame=  448 fps=0.8 q=46.0 size=    1389kB time=00:00:07.16 bitrate=1588.7kbits/s speed=0.0133x    frame=  449 fps=0.8 q=46.0 size=    1389kB time=00:00:07.18 bitrate=1584.3kbits/s speed=0.0133x    frame=  450 fps=0.8 q=46.0 size=    1389kB time=00:00:07.20 bitrate=1579.9kbits/s speed=0.0133x    frame=  453 fps=0.8 q=46.0 size=    1389kB time=00:00:07.26 bitrate=1566.9kbits/s speed=0.0134x    frame=  454 fps=0.8 q=46.0 size=    1389kB time=00:00:07.28 bitrate=1562.5kbits/s speed=0.0133x    frame=  455 fps=0.8 q=46.0 size=    1389kB time=00:00:07.30 bitrate=1558.3kbits/s speed=0.0133x    frame=  456 fps=0.8 q=46.0 size=    1389kB time=00:00:07.32 bitrate=1554.0kbits/s speed=0.0133x    frame=  458 fps=0.8 q=46.0 size=    1389kB time=00:00:07.36 bitrate=1545.6kbits/s speed=0.0132x    frame=  459 fps=0.8 q=46.0 size=    1389kB time=00:00:07.38 bitrate=1541.4kbits/s speed=0.0132x    frame=  460 fps=0.8 q=46.0 size=    1389kB time=00:00:07.40 bitrate=1537.2kbits/s speed=0.0132x    frame=  464 fps=0.8 q=46.0 size=    1389kB time=00:00:07.48 bitrate=1520.8kbits/s speed=0.0132x    frame=  465 fps=0.8 q=46.0 size=    1389kB time=00:00:07.50 bitrate=1516.7kbits/s speed=0.0132x    frame=  467 fps=0.8 q=46.0 size=    1389kB time=00:00:07.54 bitrate=1508.7kbits/s speed=0.0133x    frame=  468 fps=0.8 q=46.0 size=    1389kB time=00:00:07.56 bitrate=1504.7kbits/s speed=0.0132x    frame=  469 fps=0.8 q=46.0 size=    1389kB time=00:00:07.58 bitrate=1500.7kbits/s speed=0.0132x    frame=  470 fps=0.8 q=46.0 size=    1389kB time=00:00:07.60 bitrate=1496.8kbits/s speed=0.0132x    frame=  473 fps=0.8 q=46.0 size=    1389kB time=00:00:07.66 bitrate=1485.0kbits/s speed=0.0133x    frame=  474 fps=0.8 q=46.0 size=    1389kB time=00:00:07.68 bitrate=1481.2kbits/s speed=0.0132x    frame=  475 fps=0.8 q=46.0 size=    1389kB time=00:00:07.70 bitrate=1477.3kbits/s speed=0.0132x    frame=  476 fps=0.8 q=46.0 size=    1389kB time=00:00:07.72 bitrate=1473.5kbits/s speed=0.0132x    frame=  479 fps=0.8 q=46.0 size=    1389kB time=00:00:07.78 bitrate=1462.1kbits/s speed=0.0133x    frame=  480 fps=0.8 q=46.0 size=    1389kB time=00:00:07.80 bitrate=1458.4kbits/s speed=0.0131x    frame=  481 fps=0.8 q=46.0 size=    1389kB time=00:00:07.82 bitrate=1454.7kbits/s speed=0.0131x    frame=  482 fps=0.8 q=46.0 size=    1389kB time=00:00:07.84 bitrate=1451.0kbits/s speed=0.0131x    frame=  486 fps=0.8 q=46.0 size=    1389kB time=00:00:07.92 bitrate=1436.3kbits/s speed=0.0131x    frame=  487 fps=0.8 q=46.0 size=    1389kB time=00:00:07.94 bitrate=1432.7kbits/s speed=0.0131x    frame=  489 fps=0.8 q=46.0 size=    1389kB time=00:00:07.98 bitrate=1425.5kbits/s speed=0.0131x    frame=  492 fps=0.8 q=46.0 size=    1389kB time=00:00:08.04 bitrate=1414.9kbits/s speed=0.0131x    frame=  493 fps=0.8 q=46.0 size=    1389kB time=00:00:08.06 bitrate=1411.4kbits/s speed=0.0131x    frame=  494 fps=0.8 q=46.0 size=    1389kB time=00:00:08.08 bitrate=1407.9kbits/s speed=0.0131x    frame=  495 fps=0.8 q=46.0 size=    1389kB time=00:00:08.10 bitrate=1404.4kbits/s speed=0.013x    frame=  496 fps=0.8 q=46.0 size=    1389kB time=00:00:08.12 bitrate=1400.9kbits/s speed=0.013x    frame=  497 fps=0.8 q=46.0 size=    1389kB time=00:00:08.14 bitrate=1397.5kbits/s speed=0.0131x    frame=  499 fps=0.8 q=46.0 size=    1389kB time=00:00:08.18 bitrate=1390.6kbits/s speed=0.0131x    frame=  500 fps=0.8 q=46.0 size=    1389kB time=00:00:08.20 bitrate=1387.3kbits/s speed=0.013x    frame=  500 fps=0.6 q=-1.0 Lsize=    3062kB time=00:00:09.94 bitrate=2523.3kbits/s speed=0.0129x    
video:3058kB audio:0kB subtitle:0kB other streams:0kB global headers:0kB muxing overhead: 0.139887%
bench: utime=2923.448s
bench: maxrss=6460952kB
[libx264 @ 0x2b1c120] frame I:3     Avg QP:42.98  size: 80966
[libx264 @ 0x2b1c120] frame P:45    Avg QP:45.62  size: 14993
[libx264 @ 0x2b1c120] frame B:452   Avg QP:45.57  size:  4896
[libx264 @ 0x2b1c120] consecutive B-frames:  0.6%  0.0%  0.0%  0.0%  0.0%  0.0%  1.4%  3.2%  7.2% 30.0% 19.8%  9.6%  5.2% 14.0%  9.0%  0.0%  0.0%
[libx264 @ 0x2b1c120] mb I  I16..4: 20.2% 65.8% 14.0%
[libx264 @ 0x2b1c120] mb P  I16..4:  0.1%  1.1%  0.0%  P16..4: 16.1% 14.1%  2.0%  0.0%  0.0%    skip:66.6%
[libx264 @ 0x2b1c120] mb B  I16..4:  0.0%  0.0%  0.0%  B16..8: 21.1%  0.6%  0.0%  direct: 0.0%  skip:78.4%  L0:47.3% L1:52.7% BI: 0.0%
[libx264 @ 0x2b1c120] final ratefactor: 38.75
[libx264 @ 0x2b1c120] 8x8 transform intra:69.9% inter:94.6%
[libx264 @ 0x2b1c120] direct mvs  spatial:98.7% temporal:1.3%
[libx264 @ 0x2b1c120] coded y,uvDC,uvAC intra: 20.2% 17.2% 1.4% inter: 0.1% 0.2% 0.0%
[libx264 @ 0x2b1c120] i16 v,h,dc,p: 14% 44%  1% 41%
[libx264 @ 0x2b1c120] i8 v,h,dc,ddl,ddr,vr,hd,vl,hu: 13%  1% 42%  7% 11%  6% 10%  4%  7%
[libx264 @ 0x2b1c120] i4 v,h,dc,ddl,ddr,vr,hd,vl,hu: 42%  1% 27%  7%  8%  3%  5%  2%  5%
[libx264 @ 0x2b1c120] i8c dc,h,v,p: 20% 67%  7%  6%
[libx264 @ 0x2b1c120] Weighted P-Frames: Y:4.4% UV:2.2%
[libx264 @ 0x2b1c120] ref P L0: 72.0% 13.3%  8.7%  1.9%  1.2%  0.9%  0.7%  0.2%  0.2%  0.2%  0.1%  0.1%  0.1%  0.1%  0.1%  0.0%
[libx264 @ 0x2b1c120] ref B L0: 97.0%  1.9%  0.7%  0.2%  0.1%  0.1%  0.0%  0.0%  0.0%  0.0%  0.0%  0.0%  0.0%  0.0%  0.0%
[libx264 @ 0x2b1c120] ref B L1: 98.0%  2.0%
[libx264 @ 0x2b1c120] kb/s:2504.33
